<?xml version="1.0" encoding="UTF-8"?>
<svg width="70px" height="70px" viewBox="0 0 70 70" version="1.1" xmlns="http://www.w3.org/2000/svg" xmlns:xlink="http://www.w3.org/1999/xlink">
    <title>icon关闭</title>
    <g id="页面-1" stroke="none" stroke-width="1" fill="none" fill-rule="evenodd" fill-opacity="0.3">
        <g id="2衣服弹窗" transform="translate(-491.000000, -26.000000)" fill="#FFFFFF" fill-rule="nonzero">
            <g id="icon关闭" transform="translate(491.000000, 26.000000)">
                <path d="M35,0 C15.7024594,0 0,15.7000403 0,35 C0,54.2999597 15.7000403,70 35,70 C54.2975406,70 70,54.2999597 70,35 C70,15.7000403 54.2999597,0 35,0 Z M49.2775165,45.7800027 C50.2525198,46.7599784 50.2499664,48.340008 49.2725441,49.3150114 C48.7851096,49.8000269 48.1475609,50.0450208 47.5075931,50.0450208 C46.865072,50.0450208 46.2251042,49.8000268 45.7375353,49.3100389 L34.9875017,38.5274828 L24.2025266,49.1975541 C23.7150921,49.677597 23.0799624,49.9200376 22.4449671,49.9200376 C21.8000269,49.9200376 21.1575058,49.6724902 20.6675178,49.1775298 C19.6974869,48.1950006 19.7050127,46.614971 20.687542,45.6425211 L31.4600188,34.9875016 L20.727456,24.2199973 C19.7524527,23.2424405 19.7550061,21.6599919 20.7324284,20.6849885 C21.7099852,19.7074317 23.2898804,19.7125386 24.2674372,20.6899609 L35.0149173,31.4699636 L45.7998925,20.8000267 C46.7798683,19.8275768 48.3648703,19.8375216 49.3349013,20.8200509 C50.3073512,21.8025802 50.2974063,23.3850288 49.314877,24.3550597 L38.5425346,35.0099449 L49.2775165,45.7800027 Z" id="形状"></path>
            </g>
        </g>
    </g>
</svg>