<?xml version="1.0" encoding="UTF-8"?>
<svg width="143px" height="143px" viewBox="0 0 143 143" version="1.1" xmlns="http://www.w3.org/2000/svg" xmlns:xlink="http://www.w3.org/1999/xlink">
    <title>icon衣服备份</title>
    <g id="页面-1" stroke="none" stroke-width="1" fill="none" fill-rule="evenodd">
        <g id="首页" transform="translate(-257.000000, -887.000000)">
            <g id="icon衣服备份" transform="translate(259.000000, 889.000000)">
                <circle id="椭圆形" stroke="#313131" stroke-width="4" fill-opacity="0.5" fill="#FFFFFF" cx="69.5" cy="69.5" r="69.5"></circle>
                <g id="编组" transform="translate(40.000000, 36.000000)" fill="#2D3548" fill-rule="nonzero">
                    <path d="M30.0047074,60 C46.5746116,60 60,46.5651969 60,30.0047073 C60,13.4442177 46.5651969,1.59269173e-15 30.0047074,1.59269173e-15 C13.4348031,1.59269173e-15 0,13.4348031 0,29.9952926 C0,46.5557821 13.4253884,60 30.0047074,60 Z M30.0047074,5.62058688 C43.4677546,5.62058688 54.3794131,16.5322454 54.3794131,29.9952926 C54.3794131,43.4583398 43.4677546,54.3794131 30.0047074,54.3794131 C16.5416602,54.3794131 5.6300016,43.4583399 5.6300016,29.9952926 C5.6300016,16.5322453 16.5416601,5.62058688 30.0047074,5.62058688 Z M14.9976463,21.7479994 C14.9976463,19.6767614 16.6734662,18.0009415 18.7447043,18.0009415 C20.8159423,18.0009415 22.4917621,19.6767613 22.4917621,21.7479994 C22.4917621,23.8192374 20.8159423,25.4950572 18.7447043,25.4950572 C16.682881,25.4950572 14.9976463,23.8192374 14.9976463,21.7479994 Z M37.4988232,21.7479994 C37.4988232,19.6767614 39.174643,18.0009415 41.2458811,18.0009415 C43.3171191,18.0009415 44.9929389,19.6767613 44.9929389,21.7479994 C44.9929389,23.8192374 43.3171191,25.4950572 41.2458811,25.4950572 C39.1840578,25.4950572 37.4988232,23.8192374 37.4988232,21.7479994 Z M37.8942413,36.2278362 L22.162247,36.2278362 C21.060725,36.2278362 20.156912,35.3240232 20.156912,34.2225012 L20.156912,33.9777185 C20.156912,32.8761964 21.060725,31.9723835 22.162247,31.9723835 L37.8942413,31.9723835 C38.9957634,31.9723835 39.8995763,32.8761964 39.8995763,33.9777185 L39.8995763,34.2225012 C39.8995763,35.333438 38.9957634,36.2278362 37.8942413,36.2278362 L37.8942413,36.2278362 Z" id="形状"></path>
                </g>
            </g>
        </g>
    </g>
</svg>