<?xml version="1.0" encoding="UTF-8"?>
<svg width="49px" height="87px" viewBox="0 0 49 87" version="1.1" xmlns="http://www.w3.org/2000/svg" xmlns:xlink="http://www.w3.org/1999/xlink">
    <title>icon_jiantou</title>
    <g id="页面-1" stroke="none" stroke-width="1" fill="none" fill-rule="evenodd" fill-opacity="0.3">
        <g id="首页" transform="translate(-1811.000000, -453.000000)" fill="#000000" fill-rule="nonzero">
            <g id="icon_jiantou" transform="translate(1811.000000, 453.000000)">
                <path d="M5.7072783,87 C4.0838012,87 3.00148323,86.4547041 1.91916517,85.3641122 C-0.245470957,83.1829285 0.295688075,79.911153 2.4603242,77.7299693 L37.0945015,46.1028059 C38.1768196,45.012214 38.7179786,43.9216222 38.7179786,42.8310304 C38.7179786,41.7404385 38.1768196,40.6498467 37.0945015,39.5592548 L1.91916517,9.56797912 C-0.245470957,7.38679539 -0.786629894,4.11501989 1.37800614,1.93383626 C3.54264227,-0.247347464 6.78959636,-0.7926433 8.9542324,1.38854033 L43.5884098,31.379816 C46.8353639,34.1062956 49,38.468663 49,42.8310304 C49,47.1933977 47.3765229,51.0104692 44.1295688,54.2822447 L9.49539143,85.9094081 C8.41307336,86.4547041 6.78959636,87 5.7072783,87 L5.7072783,87 Z" id="路径"></path>
            </g>
        </g>
    </g>
</svg>