<?xml version="1.0" encoding="UTF-8"?>
<svg width="143px" height="143px" viewBox="0 0 143 143" version="1.1" xmlns="http://www.w3.org/2000/svg" xmlns:xlink="http://www.w3.org/1999/xlink">
    <title>icon衣服</title>
    <g id="页面-1" stroke="none" stroke-width="1" fill="none" fill-rule="evenodd">
        <g id="首页" transform="translate(-68.000000, -887.000000)">
            <g id="icon衣服" transform="translate(70.000000, 889.000000)">
                <circle id="椭圆形" stroke="#313131" stroke-width="4" fill-opacity="0.5" fill="#FFFFFF" cx="69.5" cy="69.5" r="69.5"></circle>
                <g id="编组" transform="translate(35.000000, 39.000000)" fill="#2D3548" fill-rule="nonzero">
                    <path d="M67.4338965,18.9 L62.9519981,10.5 C59.5158759,4.04999996 52.7930284,0 45.6219909,0 C44.1280248,0 42.9328519,1.05 42.6340586,2.54999998 C42.0364721,6.60000001 38.60035,9.74999999 34.5666415,9.74999999 C30.532933,9.74999999 26.9474142,6.74999996 26.4992244,2.54999998 C26.3498277,1.05 25.0052582,0 23.5112921,0 C16.0414614,0 9.31861376,4.05000003 5.88249163,10.5 L1.40059327,18.9 C-0.093372853,21.75 -0.392166115,25.05 0.504213543,28.2 C1.54998983,31.35 3.64154241,33.75 6.62947472,35.25 L8.7210273,36.3 L8.7210273,48 C8.7210273,54.6 14.0993054,60 20.6727564,60 L48.0123367,60 C54.5857877,60 59.9640658,54.6 59.9640658,48 L59.9640658,36.3 L62.0556184,35.25 C64.8941541,33.75 67.1351033,31.35 68.1808796,28.2 C69.2266559,25.05 68.9278627,21.75 67.4338965,18.9 Z M62.5038082,26.4 C62.0556184,27.9 60.8604455,29.25 59.5158759,30 L55.7809606,31.95 C54.7351843,32.4 54.1375979,33.45 54.1375979,34.65 L54.1375979,48.15 C54.1375979,51.45 51.4484588,54.15 48.1617333,54.15 L20.822153,54.15 C17.5354275,54.15 14.8462885,51.45 14.8462885,48.15 L14.8462885,34.65 C14.8462885,33.45 14.248702,32.4 13.2029257,31.95 L9.46801039,30 C7.97404427,29.25 6.92826798,28.05 6.48007809,26.55 C6.03188826,25.05 6.18128489,23.4 6.92826792,21.9 L11.4101663,13.5 C13.5017189,9.74999999 17.0872377,7.05 21.2703428,6.44999999 C23.2124988,12 28.5907769,16.05 34.7160381,16.05 C40.8412993,16.0499999 46.2195774,12.15 48.1617333,6.44999999 C52.3448385,7.20000001 55.9303572,9.74999999 58.0219098,13.5 L62.5038082,21.9 C62.8026014,23.25 62.9519981,24.9 62.5038082,26.4 Z" id="形状"></path>
                    <path d="M40.2666666,24 L28.5333333,24 C26.92,24 25.6,25.32 25.6,26.9333333 C25.6,28.5466666 26.92,29.8666667 28.5333333,29.8666667 L31.4666667,29.8666667 L31.4666667,38.6666667 C31.4666667,40.28 32.7866667,41.6 34.4,41.6 C36.0133332,41.6 37.3333333,40.28 37.3333333,38.6666667 L37.3333333,29.8666667 L40.2666666,29.8666667 C41.88,29.8666667 43.2,28.5466666 43.2,26.9333333 C43.2,25.32 41.88,24 40.2666666,24 L40.2666666,24 Z" id="路径"></path>
                </g>
            </g>
        </g>
    </g>
</svg>